<?xml version="1.0" encoding="UTF-8" standalone="no"?><!DOCTYPE svg PUBLIC "-//W3C//DTD SVG 1.1//EN" "http://www.w3.org/Graphics/SVG/1.1/DTD/svg11.dtd"><svg width="100%" height="100%" viewBox="0 0 476 148" version="1.1" xmlns="http://www.w3.org/2000/svg" xmlns:xlink="http://www.w3.org/1999/xlink" xml:space="preserve" xmlns:serif="http://www.serif.com/" style="fill-rule:evenodd;clip-rule:evenodd;stroke-linejoin:round;stroke-miterlimit:1.41421;"><g><clipPath id="_clip1"><path d="M257.216,103.919c-2.674,-0.124 -5.236,0.335 -7.578,1.243c-2.418,-4.784 -4.501,-9.126 -4.059,-9.102c0.982,0.038 4.881,0.207 4.881,0.207c0,0 0.657,-6.04 0.405,-9.361c-0.242,-3.339 -1.413,-3.399 -1.413,-3.399l-4.373,1.37c-5.162,1.742 -5.925,1.323 -5.925,1.323c0,0 0.062,-5.154 -0.919,-5.199c-0.976,-0.038 -5.745,-1.243 -5.745,-1.243c-0.398,-0.779 -3.61,-2.482 -5.286,-3.726c-1.872,-2.128 -8.398,-6.846 -13.112,-10.135c0.628,0.174 1.289,0.293 1.972,0.314c4.682,0.208 8.656,-3.428 8.863,-8.115c0.191,-4.695 -3.447,-8.651 -8.133,-8.858c-4.698,-0.213 -8.667,3.434 -8.869,8.123c-0.089,2.033 0.556,3.927 1.67,5.441c-0.408,-0.281 -0.638,-0.438 -0.638,-0.438c-1.133,-1.026 -2.433,0.324 -2.433,0.324c0,0 -10.915,21.63 -11.563,22.968c-0.644,1.338 1.972,4.191 1.972,4.191l-14.888,0.335c-2.545,0.084 -4.475,8.605 -4.475,8.605c-9.866,1.725 -15.666,13.797 -15.666,13.797l2.459,1.865l-0.172,4.096l-4.497,-0.197c-1.632,1.681 -0.118,2.734 -0.118,2.734l4.49,0.202l0,0.073l-0.028,0.705l0.016,0c-0.011,10.212 8.038,18.71 18.348,19.153c10.32,0.443 19.081,-7.339 19.938,-17.523c2.075,-0.022 11.52,-0.095 17.592,0c6.838,0.095 8.575,-3.939 8.575,-3.939l0.617,-14.244c0,0 4.301,0.19 6.302,-0.706c1.984,-0.885 4.939,-5.647 4.939,-5.647l4.849,8.448c-4.356,3.249 -7.277,8.358 -7.529,14.206c-0.447,10.33 7.574,19.069 17.91,19.517c10.337,0.448 19.088,-7.562 19.53,-17.904c0.449,-10.33 -7.573,-19.062 -17.909,-19.504Zm-67.184,6.912c3.1,1.994 5.258,5.288 5.71,9.079l-5.732,-0.245c-0.472,-1.305 -1.307,-2.447 -2.394,-3.283l2.416,-5.551Zm-6.245,-1.995c0.594,0.023 1.166,0.112 1.743,0.225l-1.793,5.848c-0.073,-0.006 -0.14,-0.012 -0.219,-0.017c-3.011,-0.128 -5.678,1.609 -6.866,4.185l-5.73,-0.247c1.239,-5.927 6.609,-10.262 12.865,-9.994Zm-1.087,25.17c-6.726,-0.297 -11.979,-5.798 -12.046,-12.443l5.342,0.225c-0.18,3.989 2.914,7.349 6.9,7.529c3.997,0.174 7.359,-2.918 7.528,-6.903l5.342,0.237c-0.644,6.61 -6.345,11.639 -13.066,11.355Zm52.367,-48.183c-11.513,-0.884 -21.504,3.962 -21.504,3.962c0,0 -0.335,0.454 -0.683,-0.028c-2.001,-2.857 -2.231,-4.984 -2.231,-4.984l4.793,-11.138c3.705,4.661 19.731,9.647 19.731,9.647l-0.106,2.541Zm20.983,49.096c-6.964,-0.291 -12.366,-6.178 -12.075,-13.142c0.164,-3.563 1.795,-6.723 4.272,-8.896l2.881,5.009c-1.16,1.142 -1.911,2.7 -1.984,4.453c-0.158,3.681 2.697,6.784 6.373,6.941c3.671,0.157 6.778,-2.694 6.941,-6.364c0.157,-3.674 -2.696,-6.783 -6.374,-6.934c-0.274,-0.013 -0.545,0 -0.813,0.011c-0.671,-1.272 -1.732,-3.278 -2.914,-5.552c1.491,-0.532 3.099,-0.795 4.781,-0.728c6.963,0.297 12.367,6.189 12.07,13.147c-0.31,6.968 -6.195,12.362 -13.158,12.055Z"/></clipPath><g clip-path="url(#_clip1)"><rect x="153.937" y="44.229" width="126.206" height="102.116" style="fill:#040707;fill-rule:nonzero;"/></g><clipPath id="_clip2"><path d="M66.993,69.73c-0.319,0.196 -0.746,0.297 -1.301,0.297l-0.346,0c-2.832,-0.157 -6.369,-0.352 -10.612,-0.588c-4.239,-0.235 -8.879,-0.353 -13.908,-0.353c-2.36,0 -4.501,0.314 -6.418,0.942c-1.929,0.628 -3.554,1.703 -4.893,3.238c-1.341,1.534 -2.361,3.59 -3.067,6.184c-0.706,2.588 -1.06,5.809 -1.06,9.657l0,14.721c0,4.085 0.411,7.423 1.239,10.005c0.825,2.599 1.889,4.639 3.18,6.129c1.299,1.49 2.734,2.515 4.303,3.065c1.57,0.553 3.067,0.822 4.48,0.822c3.218,0 6.244,-0.117 9.075,-0.352l0,-27.09c0,-0.627 0.22,-1.177 0.65,-1.647c0.426,-0.471 0.96,-0.707 1.586,-0.707l15.086,0c0.627,0 1.177,0.236 1.653,0.707c0.472,0.471 0.707,1.02 0.707,1.647l0,39.577c0,1.489 -0.786,2.397 -2.36,2.7c-3.218,0.638 -6.952,1.209 -11.189,1.714c-4.249,0.51 -9.317,0.768 -15.208,0.768c-2.197,0 -4.579,-0.241 -7.132,-0.711c-2.556,-0.471 -5.067,-1.249 -7.539,-2.354c-2.477,-1.097 -4.854,-2.587 -7.136,-4.469c-2.276,-1.894 -4.299,-4.202 -6.07,-6.958c-1.766,-2.745 -3.162,-6.022 -4.182,-9.825c-1.02,-3.81 -1.531,-8.19 -1.531,-13.131l0,-14.61c0,-7.54 1.059,-13.718 3.185,-18.553c2.117,-4.828 4.887,-8.649 8.307,-11.483c3.419,-2.824 7.264,-4.785 11.546,-5.888c4.284,-1.093 8.55,-1.648 12.787,-1.648c5.897,0 10.926,0.331 15.084,0.997c4.171,0.673 7.349,1.239 9.547,1.709c1.34,0.234 2.007,0.828 2.007,1.77l0,12.486c0.001,0.622 -0.156,1.036 -0.47,1.232Z"/></clipPath><g clip-path="url(#_clip2)"><rect x="0" y="46.536" width="72.463" height="99.63" style="fill:#040707;fill-rule:nonzero;"/></g><clipPath id="_clip3"><path d="M151.022,103.358c0,6.829 -0.897,12.638 -2.707,17.433c-1.805,4.784 -4.272,8.695 -7.411,11.718c-3.139,3.02 -6.829,5.222 -11.061,6.595c-4.237,1.371 -8.783,2.056 -13.644,2.056c-4.871,0 -9.417,-0.685 -13.649,-2.056c-4.239,-1.372 -7.921,-3.575 -11.066,-6.595c-3.133,-3.023 -5.606,-6.934 -7.411,-11.718c-1.798,-4.795 -2.701,-10.604 -2.701,-17.433l0,-14.015c0,-6.83 0.903,-12.638 2.701,-17.434c1.805,-4.782 4.277,-8.693 7.411,-11.713c3.145,-3.025 6.827,-5.227 11.066,-6.598c4.233,-1.373 8.778,-2.057 13.649,-2.057c4.861,0 9.407,0.684 13.644,2.057c4.232,1.371 7.922,3.573 11.061,6.598c3.139,3.019 5.606,6.931 7.411,11.713c1.81,4.795 2.707,10.604 2.707,17.434l0,14.015Zm-20.152,-14.049c0,-7.171 -1.199,-12.341 -3.592,-15.489c-2.399,-3.155 -6.072,-4.735 -11.022,-4.735c-4.947,0 -8.604,1.58 -10.959,4.735c-2.36,3.148 -3.536,8.318 -3.536,15.489l0,14.083c0,7.17 1.176,12.334 3.536,15.494c2.355,3.147 6.011,4.728 10.959,4.728c4.95,0 8.623,-1.581 11.022,-4.728c2.393,-3.16 3.592,-8.324 3.592,-15.494l0,-14.083Z"/></clipPath><g clip-path="url(#_clip3)"><rect x="76.372" y="46.541" width="79.65" height="99.619" style="fill:#040707;fill-rule:nonzero;"/></g><clipPath id="_clip4"><path d="M376.985,141.596c-3.425,0.359 -8.312,0.537 -14.675,0.537c-3.772,0 -7.395,-0.319 -10.864,-0.951c-3.476,-0.623 -6.529,-1.837 -9.181,-3.647c-2.652,-1.809 -4.759,-4.374 -6.341,-7.713c-1.58,-3.333 -2.371,-7.668 -2.371,-13.02l0,-39.094c0,-5.338 0.791,-9.664 2.371,-12.958c1.582,-3.3 3.689,-5.848 6.341,-7.652c2.652,-1.81 5.722,-3.025 9.237,-3.653c3.515,-0.627 7.153,-0.941 10.927,-0.941c3.143,0 5.907,0.057 8.306,0.174c2.399,0.117 4.496,0.252 6.306,0.414c1.805,0.153 3.359,0.309 4.654,0.47c1.299,0.152 2.46,0.314 3.48,0.471c1.57,0.236 2.355,1.02 2.355,2.347l0,10.958c0,0.633 -0.231,1.177 -0.708,1.647c-0.47,0.481 -1.024,0.705 -1.647,0.705l-23.924,0c-2.752,0 -4.698,0.571 -5.836,1.715c-1.138,1.137 -1.71,3.237 -1.71,6.302l0,10.717l30.529,0c0.627,0 1.178,0.234 1.648,0.705c0.47,0.471 0.705,1.026 0.705,1.648l0,11.192c0,0.627 -0.235,1.17 -0.705,1.647c-0.471,0.472 -1.021,0.706 -1.648,0.706l-30.529,0l0,12.48c0,3.065 0.572,5.165 1.71,6.308c1.138,1.132 3.084,1.709 5.836,1.709l23.924,0c0.623,0 1.177,0.229 1.647,0.706c0.477,0.47 0.708,1.018 0.708,1.645l0,10.952c0,1.413 -0.785,2.241 -2.355,2.476c-2.045,0.314 -4.775,0.651 -8.19,0.998Z"/></clipPath><g clip-path="url(#_clip4)"><rect x="328.553" y="47.504" width="63.977" height="99.629" style="fill:#040707;fill-rule:nonzero;"/></g><clipPath id="_clip5"><path d="M470.852,54.857c0,0.471 -0.196,1.021 -0.583,1.653l-28.057,39.802l28.17,42.283c0.314,0.396 0.471,0.828 0.471,1.298c0,0.785 -0.549,1.178 -1.648,1.178l-20.276,0c-0.707,0 -1.233,-0.158 -1.586,-0.472c-0.359,-0.313 -0.691,-0.706 -1.009,-1.176l-23.913,-38.87l0,38.153c0,0.639 -0.237,1.187 -0.708,1.657c-0.477,0.472 -1.032,0.707 -1.653,0.707l-15.444,0c-0.628,0 -1.178,-0.236 -1.647,-0.707c-0.472,-0.47 -0.707,-1.018 -0.707,-1.657l0,-82.907c0,-0.628 0.235,-1.154 0.707,-1.59c0.47,-0.428 1.019,-0.65 1.647,-0.65l15.444,0c0.621,0 1.176,0.222 1.653,0.65c0.471,0.436 0.708,0.962 0.708,1.59l0,37.454l25.924,-38.284c0.545,-0.941 1.413,-1.41 2.59,-1.41l18.035,0c1.249,-0.001 1.882,0.436 1.882,1.298Z"/></clipPath><g clip-path="url(#_clip5)"><rect x="397.262" y="48.559" width="78.591" height="97.512" style="fill:#040707;fill-rule:nonzero;"/></g><clipPath id="_clip6"><path d="M176.331,23.504c3.129,-1.927 40.176,-27.925 78.284,1.754c0,0 4.149,-0.987 3.885,-3.709c-0.264,-2.734 -39.122,-34.305 -86.674,-2.342c-1.42,0.964 1.373,6.218 4.505,4.297Z"/></clipPath><g clip-path="url(#_clip6)"><rect x="166.446" y="0" width="97.066" height="30.258" style="fill:#040707;fill-rule:nonzero;"/></g><clipPath id="_clip7"><path d="M185.261,35.402c2.388,-1.551 30.641,-22.424 59.701,1.411c0,0 3.347,-0.789 3.145,-2.974c-0.203,-2.196 -29.834,-27.544 -66.097,-1.883c-1.082,0.775 0.863,4.987 3.251,3.446Z"/></clipPath><g clip-path="url(#_clip7)"><rect x="176.703" y="15.551" width="76.413" height="26.262" style="fill:#040707;fill-rule:nonzero;"/></g><clipPath id="_clip8"><path d="M195.547,46.068c1.576,-1.11 20.193,-16.139 39.336,1.02c0,0 2.086,-0.823 1.956,-2.397c-0.134,-1.575 -19.663,-19.831 -43.555,-1.35c-0.713,0.554 0.692,3.842 2.263,2.727Z"/></clipPath><g clip-path="url(#_clip8)"><rect x="188.093" y="30.127" width="53.752" height="21.961" style="fill:#040707;fill-rule:nonzero;"/></g><clipPath id="_clip9"><path d="M317.452,133.608c-0.884,2.101 -2.072,3.77 -3.58,4.991c-1.513,1.22 -3.286,2.09 -5.336,2.593c-2.035,0.505 -4.249,0.757 -6.633,0.757c-1.08,0 -2.494,0.208 -3.341,0.139c-0.846,-0.067 -10.74,0.247 -12.001,0.118c-0.936,-0.128 -1.401,-0.66 -1.401,-1.608l-0.286,-15.505c0,-0.308 0.095,-0.605 0.292,-0.884c0.179,-0.291 0.432,-0.432 0.751,-0.432l8.7,0.062c1.076,0 1.744,-0.27 2.034,-0.801c0.282,-0.532 0.42,-1.4 0.42,-2.594l-0.178,-64.763c0,-0.498 0.184,-0.93 0.56,-1.272c0.387,-0.347 0.824,-0.514 1.322,-0.514l17.636,0.117c0.5,0 0.947,0.174 1.323,0.515c0.374,0.342 0.565,0.767 0.565,1.272l0,68.778c0.001,3.194 0.029,6.924 -0.847,9.031Z"/></clipPath><g clip-path="url(#_clip9)"><rect x="279.874" y="48.895" width="43.426" height="98.343" style="fill:#040707;fill-rule:nonzero;"/></g></g></svg>